<mxfile host="Electron" modified="2024-06-24T06:51:27.053Z" agent="Mozilla/5.0 (Macintosh; Intel Mac OS X 10_15_7) AppleWebKit/537.36 (KHTML, like Gecko) draw.io/24.5.3 Chrome/124.0.6367.207 Electron/30.0.6 Safari/537.36" etag="B7mRl9X5CAgLfqHqDrh1" version="24.5.3" type="device">
  <diagram name="Page-1" id="G7e4yzpGS1BnXau_BBzK">
    <mxGraphModel dx="957" dy="579" grid="1" gridSize="10" guides="1" tooltips="1" connect="1" arrows="1" fold="1" page="1" pageScale="1" pageWidth="1100" pageHeight="850" math="0" shadow="0">
      <root>
        <mxCell id="0" />
        <mxCell id="1" parent="0" />
        <mxCell id="PNOM8t6g6F2ZsMxSrsSq-2" value="" style="rounded=0;whiteSpace=wrap;html=1;fillColor=#f5f5f5;fontColor=#333333;strokeColor=#666666;fontFamily=Styrene B Trial;" vertex="1" parent="1">
          <mxGeometry width="550" height="110" as="geometry" />
        </mxCell>
        <mxCell id="PNOM8t6g6F2ZsMxSrsSq-3" value="" style="rounded=0;whiteSpace=wrap;html=1;fillColor=#f5f5f5;fontColor=#333333;strokeColor=#666666;fontFamily=Styrene B Trial;" vertex="1" parent="1">
          <mxGeometry y="190" width="550" height="110" as="geometry" />
        </mxCell>
        <mxCell id="PNOM8t6g6F2ZsMxSrsSq-10" style="edgeStyle=orthogonalEdgeStyle;rounded=0;orthogonalLoop=1;jettySize=auto;html=1;startArrow=classic;startFill=1;dashed=1;dashPattern=8 8;fillColor=#f8cecc;strokeColor=#b85450;fontFamily=Styrene B Trial;" edge="1" parent="1">
          <mxGeometry relative="1" as="geometry">
            <mxPoint x="464.83000000000004" y="100" as="sourcePoint" />
            <mxPoint x="464.83000000000004" y="200" as="targetPoint" />
          </mxGeometry>
        </mxCell>
        <mxCell id="PNOM8t6g6F2ZsMxSrsSq-4" value="" style="shape=cylinder3;whiteSpace=wrap;html=1;boundedLbl=1;backgroundOutline=1;size=4.965517241379331;fontFamily=Styrene B Trial;" vertex="1" parent="1">
          <mxGeometry x="410" y="10" width="110" height="90" as="geometry" />
        </mxCell>
        <mxCell id="PNOM8t6g6F2ZsMxSrsSq-5" value="" style="shape=cylinder3;whiteSpace=wrap;html=1;boundedLbl=1;backgroundOutline=1;size=4.2758620689655515;fontFamily=Styrene B Trial;" vertex="1" parent="1">
          <mxGeometry x="410" y="200" width="110" height="90" as="geometry" />
        </mxCell>
        <mxCell id="PNOM8t6g6F2ZsMxSrsSq-6" value="UserManagementService" style="rounded=1;whiteSpace=wrap;html=1;fontFamily=Styrene B Trial;" vertex="1" parent="1">
          <mxGeometry x="30" y="30" width="160" height="50" as="geometry" />
        </mxCell>
        <mxCell id="PNOM8t6g6F2ZsMxSrsSq-8" style="edgeStyle=orthogonalEdgeStyle;rounded=0;orthogonalLoop=1;jettySize=auto;html=1;startArrow=classic;startFill=1;fontFamily=Styrene B Trial;fillColor=#f5f5f5;strokeColor=#999999;dashed=1;" edge="1" parent="1" source="PNOM8t6g6F2ZsMxSrsSq-7" target="PNOM8t6g6F2ZsMxSrsSq-5">
          <mxGeometry relative="1" as="geometry" />
        </mxCell>
        <mxCell id="PNOM8t6g6F2ZsMxSrsSq-7" value="MessagingService" style="rounded=1;whiteSpace=wrap;html=1;fontFamily=Styrene B Trial;" vertex="1" parent="1">
          <mxGeometry x="30" y="220" width="160" height="50" as="geometry" />
        </mxCell>
        <mxCell id="PNOM8t6g6F2ZsMxSrsSq-9" style="edgeStyle=orthogonalEdgeStyle;rounded=0;orthogonalLoop=1;jettySize=auto;html=1;entryX=0;entryY=0.5;entryDx=0;entryDy=0;entryPerimeter=0;startArrow=classic;startFill=1;fontFamily=Styrene B Trial;fillColor=#f5f5f5;strokeColor=#999999;dashed=1;" edge="1" parent="1" source="PNOM8t6g6F2ZsMxSrsSq-6" target="PNOM8t6g6F2ZsMxSrsSq-4">
          <mxGeometry relative="1" as="geometry" />
        </mxCell>
        <mxCell id="PNOM8t6g6F2ZsMxSrsSq-13" value="" style="group;fillColor=none;strokeColor=none;fontFamily=Styrene B Trial;" vertex="1" connectable="0" parent="1">
          <mxGeometry x="460" y="115" width="10" height="10" as="geometry" />
        </mxCell>
        <mxCell id="PNOM8t6g6F2ZsMxSrsSq-11" value="" style="endArrow=none;html=1;rounded=0;fillColor=#f8cecc;strokeColor=#b85450;fontFamily=Styrene B Trial;" edge="1" parent="PNOM8t6g6F2ZsMxSrsSq-13">
          <mxGeometry width="50" height="50" relative="1" as="geometry">
            <mxPoint y="10" as="sourcePoint" />
            <mxPoint x="10" as="targetPoint" />
            <Array as="points">
              <mxPoint y="10" />
            </Array>
          </mxGeometry>
        </mxCell>
        <mxCell id="PNOM8t6g6F2ZsMxSrsSq-12" value="" style="endArrow=none;html=1;rounded=0;fillColor=#f8cecc;strokeColor=#b85450;fontFamily=Styrene B Trial;" edge="1" parent="PNOM8t6g6F2ZsMxSrsSq-13">
          <mxGeometry width="50" height="50" relative="1" as="geometry">
            <mxPoint as="sourcePoint" />
            <mxPoint x="10" y="10" as="targetPoint" />
          </mxGeometry>
        </mxCell>
        <mxCell id="PNOM8t6g6F2ZsMxSrsSq-14" value="" style="group;fillColor=none;strokeColor=none;fontFamily=Styrene B Trial;" vertex="1" connectable="0" parent="1">
          <mxGeometry x="460" y="145" width="10" height="10" as="geometry" />
        </mxCell>
        <mxCell id="PNOM8t6g6F2ZsMxSrsSq-15" value="" style="endArrow=none;html=1;rounded=0;fillColor=#f8cecc;strokeColor=#b85450;fontFamily=Styrene B Trial;" edge="1" parent="PNOM8t6g6F2ZsMxSrsSq-14">
          <mxGeometry width="50" height="50" relative="1" as="geometry">
            <mxPoint y="10" as="sourcePoint" />
            <mxPoint x="10" as="targetPoint" />
            <Array as="points">
              <mxPoint y="10" />
            </Array>
          </mxGeometry>
        </mxCell>
        <mxCell id="PNOM8t6g6F2ZsMxSrsSq-16" value="" style="endArrow=none;html=1;rounded=0;fillColor=#f8cecc;strokeColor=#b85450;fontFamily=Styrene B Trial;" edge="1" parent="PNOM8t6g6F2ZsMxSrsSq-14">
          <mxGeometry width="50" height="50" relative="1" as="geometry">
            <mxPoint as="sourcePoint" />
            <mxPoint x="10" y="10" as="targetPoint" />
          </mxGeometry>
        </mxCell>
        <mxCell id="PNOM8t6g6F2ZsMxSrsSq-17" value="" style="group;fillColor=none;strokeColor=none;fontFamily=Styrene B Trial;" vertex="1" connectable="0" parent="1">
          <mxGeometry x="460" y="175" width="10" height="10" as="geometry" />
        </mxCell>
        <mxCell id="PNOM8t6g6F2ZsMxSrsSq-18" value="" style="endArrow=none;html=1;rounded=0;fillColor=#f8cecc;strokeColor=#b85450;fontFamily=Styrene B Trial;" edge="1" parent="PNOM8t6g6F2ZsMxSrsSq-17">
          <mxGeometry width="50" height="50" relative="1" as="geometry">
            <mxPoint y="10" as="sourcePoint" />
            <mxPoint x="10" as="targetPoint" />
            <Array as="points">
              <mxPoint y="10" />
            </Array>
          </mxGeometry>
        </mxCell>
        <mxCell id="PNOM8t6g6F2ZsMxSrsSq-19" value="" style="endArrow=none;html=1;rounded=0;fillColor=#f8cecc;strokeColor=#b85450;fontFamily=Styrene B Trial;" edge="1" parent="PNOM8t6g6F2ZsMxSrsSq-17">
          <mxGeometry width="50" height="50" relative="1" as="geometry">
            <mxPoint as="sourcePoint" />
            <mxPoint x="10" y="10" as="targetPoint" />
          </mxGeometry>
        </mxCell>
        <mxCell id="PNOM8t6g6F2ZsMxSrsSq-20" value="&lt;font&gt;No direct connection&lt;/font&gt;&lt;div&gt;&lt;font&gt;between data models&lt;/font&gt;&lt;/div&gt;" style="text;html=1;align=center;verticalAlign=middle;resizable=0;points=[];autosize=1;strokeColor=none;fillColor=none;fontColor=#BA4A4A;fontFamily=Styrene B Trial;" vertex="1" parent="1">
          <mxGeometry x="320" y="130" width="150" height="40" as="geometry" />
        </mxCell>
        <mxCell id="PNOM8t6g6F2ZsMxSrsSq-72" style="edgeStyle=orthogonalEdgeStyle;rounded=0;orthogonalLoop=1;jettySize=auto;html=1;entryX=0.5;entryY=0;entryDx=0;entryDy=0;startArrow=classic;startFill=1;fillColor=#d5e8d4;strokeColor=#82b366;" edge="1" parent="1" source="PNOM8t6g6F2ZsMxSrsSq-21" target="PNOM8t6g6F2ZsMxSrsSq-22">
          <mxGeometry relative="1" as="geometry" />
        </mxCell>
        <mxCell id="PNOM8t6g6F2ZsMxSrsSq-74" style="edgeStyle=orthogonalEdgeStyle;rounded=0;orthogonalLoop=1;jettySize=auto;html=1;entryX=0.5;entryY=1;entryDx=0;entryDy=0;dashed=1;startArrow=classic;startFill=1;fillColor=#f5f5f5;strokeColor=#999999;" edge="1" parent="1" source="PNOM8t6g6F2ZsMxSrsSq-21" target="PNOM8t6g6F2ZsMxSrsSq-6">
          <mxGeometry relative="1" as="geometry" />
        </mxCell>
        <mxCell id="PNOM8t6g6F2ZsMxSrsSq-21" value="" style="ellipse;whiteSpace=wrap;html=1;aspect=fixed;fontFamily=Styrene B Trial;fillColor=#d5e8d4;strokeColor=#82b366;" vertex="1" parent="1">
          <mxGeometry x="105" y="105" width="10" height="10" as="geometry" />
        </mxCell>
        <mxCell id="PNOM8t6g6F2ZsMxSrsSq-73" style="edgeStyle=orthogonalEdgeStyle;rounded=0;orthogonalLoop=1;jettySize=auto;html=1;dashed=1;startArrow=classic;startFill=1;fillColor=#f5f5f5;strokeColor=#999999;" edge="1" parent="1" source="PNOM8t6g6F2ZsMxSrsSq-22" target="PNOM8t6g6F2ZsMxSrsSq-7">
          <mxGeometry relative="1" as="geometry" />
        </mxCell>
        <mxCell id="PNOM8t6g6F2ZsMxSrsSq-22" value="" style="ellipse;whiteSpace=wrap;html=1;aspect=fixed;fontFamily=Styrene B Trial;fillColor=#d5e8d4;strokeColor=#82b366;" vertex="1" parent="1">
          <mxGeometry x="105" y="185" width="10" height="10" as="geometry" />
        </mxCell>
        <mxCell id="PNOM8t6g6F2ZsMxSrsSq-50" value="" style="rounded=0;whiteSpace=wrap;html=1;" vertex="1" parent="1">
          <mxGeometry x="420" y="25" width="90" height="65" as="geometry" />
        </mxCell>
        <mxCell id="PNOM8t6g6F2ZsMxSrsSq-52" value="" style="endArrow=none;html=1;rounded=0;exitX=0.25;exitY=1;exitDx=0;exitDy=0;" edge="1" parent="1" source="PNOM8t6g6F2ZsMxSrsSq-50">
          <mxGeometry width="50" height="50" relative="1" as="geometry">
            <mxPoint x="370" y="190" as="sourcePoint" />
            <mxPoint x="442" y="41" as="targetPoint" />
          </mxGeometry>
        </mxCell>
        <mxCell id="PNOM8t6g6F2ZsMxSrsSq-53" value="" style="endArrow=none;html=1;rounded=0;entryX=0;entryY=0.25;entryDx=0;entryDy=0;exitX=1;exitY=0.25;exitDx=0;exitDy=0;" edge="1" parent="1" source="PNOM8t6g6F2ZsMxSrsSq-50" target="PNOM8t6g6F2ZsMxSrsSq-50">
          <mxGeometry width="50" height="50" relative="1" as="geometry">
            <mxPoint x="453" y="100" as="sourcePoint" />
            <mxPoint x="453" y="35" as="targetPoint" />
          </mxGeometry>
        </mxCell>
        <mxCell id="PNOM8t6g6F2ZsMxSrsSq-54" value="" style="endArrow=none;html=1;rounded=0;entryX=0;entryY=0.25;entryDx=0;entryDy=0;exitX=1;exitY=0.25;exitDx=0;exitDy=0;" edge="1" parent="1">
          <mxGeometry width="50" height="50" relative="1" as="geometry">
            <mxPoint x="510" y="54.97" as="sourcePoint" />
            <mxPoint x="420" y="54.97" as="targetPoint" />
          </mxGeometry>
        </mxCell>
        <mxCell id="PNOM8t6g6F2ZsMxSrsSq-55" value="Users" style="text;html=1;align=center;verticalAlign=middle;resizable=0;points=[];autosize=1;strokeColor=none;fillColor=none;fontSize=7;fontFamily=Styrene B Trial;" vertex="1" parent="1">
          <mxGeometry x="444" y="23" width="40" height="20" as="geometry" />
        </mxCell>
        <mxCell id="PNOM8t6g6F2ZsMxSrsSq-56" value="User ID" style="text;html=1;align=left;verticalAlign=middle;resizable=0;points=[];autosize=1;strokeColor=none;fillColor=none;fontSize=7;fontFamily=Styrene B Trial;" vertex="1" parent="1">
          <mxGeometry x="444" y="38" width="50" height="20" as="geometry" />
        </mxCell>
        <mxCell id="PNOM8t6g6F2ZsMxSrsSq-57" value="User Name" style="text;html=1;align=left;verticalAlign=middle;resizable=0;points=[];autosize=1;strokeColor=none;fillColor=none;fontSize=7;fontFamily=Styrene B Trial;" vertex="1" parent="1">
          <mxGeometry x="444" y="51" width="60" height="20" as="geometry" />
        </mxCell>
        <mxCell id="PNOM8t6g6F2ZsMxSrsSq-58" value="User Email" style="text;html=1;align=left;verticalAlign=middle;resizable=0;points=[];autosize=1;strokeColor=none;fillColor=none;fontSize=7;fontFamily=Styrene B Trial;" vertex="1" parent="1">
          <mxGeometry x="444" y="61" width="60" height="20" as="geometry" />
        </mxCell>
        <mxCell id="PNOM8t6g6F2ZsMxSrsSq-59" value="User Password" style="text;html=1;align=left;verticalAlign=middle;resizable=0;points=[];autosize=1;strokeColor=none;fillColor=none;fontSize=7;fontFamily=Styrene B Trial;" vertex="1" parent="1">
          <mxGeometry x="444" y="70" width="80" height="20" as="geometry" />
        </mxCell>
        <mxCell id="PNOM8t6g6F2ZsMxSrsSq-60" value="PK" style="text;html=1;align=left;verticalAlign=middle;resizable=0;points=[];autosize=1;strokeColor=none;fillColor=none;fontSize=7;fontFamily=Styrene B Trial;" vertex="1" parent="1">
          <mxGeometry x="423" y="38" width="30" height="20" as="geometry" />
        </mxCell>
        <mxCell id="PNOM8t6g6F2ZsMxSrsSq-61" value="" style="rounded=0;whiteSpace=wrap;html=1;" vertex="1" parent="1">
          <mxGeometry x="422" y="212" width="90" height="65" as="geometry" />
        </mxCell>
        <mxCell id="PNOM8t6g6F2ZsMxSrsSq-62" value="" style="endArrow=none;html=1;rounded=0;exitX=0.25;exitY=1;exitDx=0;exitDy=0;" edge="1" parent="1" source="PNOM8t6g6F2ZsMxSrsSq-61">
          <mxGeometry width="50" height="50" relative="1" as="geometry">
            <mxPoint x="372" y="377" as="sourcePoint" />
            <mxPoint x="444" y="228" as="targetPoint" />
          </mxGeometry>
        </mxCell>
        <mxCell id="PNOM8t6g6F2ZsMxSrsSq-63" value="" style="endArrow=none;html=1;rounded=0;entryX=0;entryY=0.25;entryDx=0;entryDy=0;exitX=1;exitY=0.25;exitDx=0;exitDy=0;" edge="1" parent="1" source="PNOM8t6g6F2ZsMxSrsSq-61" target="PNOM8t6g6F2ZsMxSrsSq-61">
          <mxGeometry width="50" height="50" relative="1" as="geometry">
            <mxPoint x="455" y="287" as="sourcePoint" />
            <mxPoint x="455" y="222" as="targetPoint" />
          </mxGeometry>
        </mxCell>
        <mxCell id="PNOM8t6g6F2ZsMxSrsSq-64" value="" style="endArrow=none;html=1;rounded=0;entryX=0;entryY=0.25;entryDx=0;entryDy=0;exitX=1;exitY=0.25;exitDx=0;exitDy=0;" edge="1" parent="1">
          <mxGeometry width="50" height="50" relative="1" as="geometry">
            <mxPoint x="512" y="241.97" as="sourcePoint" />
            <mxPoint x="422" y="241.97" as="targetPoint" />
          </mxGeometry>
        </mxCell>
        <mxCell id="PNOM8t6g6F2ZsMxSrsSq-65" value="Messages" style="text;html=1;align=center;verticalAlign=middle;resizable=0;points=[];autosize=1;strokeColor=none;fillColor=none;fontSize=7;fontFamily=Styrene B Trial;" vertex="1" parent="1">
          <mxGeometry x="436" y="210" width="60" height="20" as="geometry" />
        </mxCell>
        <mxCell id="PNOM8t6g6F2ZsMxSrsSq-66" value="Message ID" style="text;html=1;align=left;verticalAlign=middle;resizable=0;points=[];autosize=1;strokeColor=none;fillColor=none;fontSize=7;fontFamily=Styrene B Trial;" vertex="1" parent="1">
          <mxGeometry x="446" y="225" width="60" height="20" as="geometry" />
        </mxCell>
        <mxCell id="PNOM8t6g6F2ZsMxSrsSq-67" value="Message Text" style="text;html=1;align=left;verticalAlign=middle;resizable=0;points=[];autosize=1;strokeColor=none;fillColor=none;fontSize=7;fontFamily=Styrene B Trial;" vertex="1" parent="1">
          <mxGeometry x="446" y="238" width="70" height="20" as="geometry" />
        </mxCell>
        <mxCell id="PNOM8t6g6F2ZsMxSrsSq-68" value="Message Date" style="text;html=1;align=left;verticalAlign=middle;resizable=0;points=[];autosize=1;strokeColor=none;fillColor=none;fontSize=7;fontFamily=Styrene B Trial;" vertex="1" parent="1">
          <mxGeometry x="446" y="248" width="70" height="20" as="geometry" />
        </mxCell>
        <mxCell id="PNOM8t6g6F2ZsMxSrsSq-69" value="User ID" style="text;html=1;align=left;verticalAlign=middle;resizable=0;points=[];autosize=1;strokeColor=none;fillColor=none;fontSize=7;fontFamily=Styrene B Trial;" vertex="1" parent="1">
          <mxGeometry x="446" y="258" width="50" height="20" as="geometry" />
        </mxCell>
        <mxCell id="PNOM8t6g6F2ZsMxSrsSq-70" value="PK" style="text;html=1;align=left;verticalAlign=middle;resizable=0;points=[];autosize=1;strokeColor=none;fillColor=none;fontSize=7;fontFamily=Styrene B Trial;" vertex="1" parent="1">
          <mxGeometry x="425" y="225" width="30" height="20" as="geometry" />
        </mxCell>
        <mxCell id="PNOM8t6g6F2ZsMxSrsSq-71" value="KEY" style="text;html=1;align=left;verticalAlign=middle;resizable=0;points=[];autosize=1;strokeColor=none;fillColor=none;fontSize=7;fontFamily=Styrene B Trial;" vertex="1" parent="1">
          <mxGeometry x="425" y="258" width="40" height="20" as="geometry" />
        </mxCell>
        <mxCell id="PNOM8t6g6F2ZsMxSrsSq-77" value="User ID" style="text;html=1;align=left;verticalAlign=middle;resizable=0;points=[];autosize=1;strokeColor=none;fillColor=none;fontSize=7;fontFamily=Styrene B Trial;fontColor=#B3B3B3;" vertex="1" parent="1">
          <mxGeometry x="270" y="220" width="50" height="20" as="geometry" />
        </mxCell>
        <mxCell id="PNOM8t6g6F2ZsMxSrsSq-79" value="" style="endArrow=classic;html=1;rounded=0;strokeColor=#B3B3B3;" edge="1" parent="1">
          <mxGeometry width="50" height="50" relative="1" as="geometry">
            <mxPoint x="270" y="229.82999999999998" as="sourcePoint" />
            <mxPoint x="230" y="229.82999999999998" as="targetPoint" />
          </mxGeometry>
        </mxCell>
        <mxCell id="PNOM8t6g6F2ZsMxSrsSq-80" value="User ID" style="text;html=1;align=left;verticalAlign=middle;resizable=0;points=[];autosize=1;strokeColor=none;fillColor=none;fontSize=7;fontFamily=Styrene B Trial;fontColor=#B3B3B3;" vertex="1" parent="1">
          <mxGeometry x="115" y="150" width="50" height="20" as="geometry" />
        </mxCell>
        <mxCell id="PNOM8t6g6F2ZsMxSrsSq-81" value="" style="endArrow=classic;html=1;rounded=0;strokeColor=#B3B3B3;" edge="1" parent="1">
          <mxGeometry width="50" height="50" relative="1" as="geometry">
            <mxPoint x="130" y="155.17000000000002" as="sourcePoint" />
            <mxPoint x="130" y="130" as="targetPoint" />
          </mxGeometry>
        </mxCell>
        <mxCell id="PNOM8t6g6F2ZsMxSrsSq-82" value="User ID" style="text;html=1;align=left;verticalAlign=middle;resizable=0;points=[];autosize=1;strokeColor=none;fillColor=none;fontSize=7;fontFamily=Styrene B Trial;fontColor=#B3B3B3;" vertex="1" parent="1">
          <mxGeometry x="290" y="31" width="50" height="20" as="geometry" />
        </mxCell>
        <mxCell id="PNOM8t6g6F2ZsMxSrsSq-83" value="" style="endArrow=none;html=1;rounded=0;strokeColor=#B3B3B3;startArrow=classic;startFill=1;endFill=0;" edge="1" parent="1">
          <mxGeometry width="50" height="50" relative="1" as="geometry">
            <mxPoint x="360" y="40.969999999999985" as="sourcePoint" />
            <mxPoint x="320" y="40.969999999999985" as="targetPoint" />
          </mxGeometry>
        </mxCell>
        <mxCell id="PNOM8t6g6F2ZsMxSrsSq-85" value="User Information" style="text;html=1;align=left;verticalAlign=middle;resizable=0;points=[];autosize=1;strokeColor=none;fillColor=none;fontSize=7;fontFamily=Styrene B Trial;fontColor=#B3B3B3;" vertex="1" parent="1">
          <mxGeometry x="290" y="60" width="80" height="20" as="geometry" />
        </mxCell>
        <mxCell id="PNOM8t6g6F2ZsMxSrsSq-86" value="" style="endArrow=classic;html=1;rounded=0;strokeColor=#B3B3B3;" edge="1" parent="1">
          <mxGeometry width="50" height="50" relative="1" as="geometry">
            <mxPoint x="290" y="69.82999999999998" as="sourcePoint" />
            <mxPoint x="250" y="69.82999999999998" as="targetPoint" />
          </mxGeometry>
        </mxCell>
        <mxCell id="PNOM8t6g6F2ZsMxSrsSq-87" value="User Information" style="text;html=1;align=right;verticalAlign=middle;resizable=0;points=[];autosize=1;strokeColor=none;fillColor=none;fontSize=7;fontFamily=Styrene B Trial;fontColor=#B3B3B3;" vertex="1" parent="1">
          <mxGeometry x="250" y="250" width="80" height="20" as="geometry" />
        </mxCell>
        <mxCell id="PNOM8t6g6F2ZsMxSrsSq-88" value="" style="endArrow=none;html=1;rounded=0;strokeColor=#B3B3B3;startArrow=classic;startFill=1;endFill=0;" edge="1" parent="1">
          <mxGeometry width="50" height="50" relative="1" as="geometry">
            <mxPoint x="370" y="259.96999999999997" as="sourcePoint" />
            <mxPoint x="330" y="259.96999999999997" as="targetPoint" />
          </mxGeometry>
        </mxCell>
        <mxCell id="PNOM8t6g6F2ZsMxSrsSq-89" value="User&amp;nbsp;&lt;div&gt;Information&lt;/div&gt;" style="text;html=1;align=center;verticalAlign=middle;resizable=0;points=[];autosize=1;strokeColor=none;fillColor=none;fontSize=7;fontFamily=Styrene B Trial;fontColor=#B3B3B3;" vertex="1" parent="1">
          <mxGeometry x="55" y="122.42" width="60" height="30" as="geometry" />
        </mxCell>
        <mxCell id="PNOM8t6g6F2ZsMxSrsSq-90" value="" style="endArrow=none;html=1;rounded=0;strokeColor=#B3B3B3;startArrow=classic;startFill=1;endFill=0;" edge="1" parent="1">
          <mxGeometry width="50" height="50" relative="1" as="geometry">
            <mxPoint x="85" y="170" as="sourcePoint" />
            <mxPoint x="85" y="144.82999999999998" as="targetPoint" />
          </mxGeometry>
        </mxCell>
        <mxCell id="PNOM8t6g6F2ZsMxSrsSq-91" value="" style="rounded=0;whiteSpace=wrap;html=1;fillColor=#f5f5f5;fontColor=#333333;strokeColor=#666666;fontFamily=Styrene B Trial;" vertex="1" parent="1">
          <mxGeometry y="320" width="550" height="110" as="geometry" />
        </mxCell>
        <mxCell id="PNOM8t6g6F2ZsMxSrsSq-92" value="" style="rounded=0;whiteSpace=wrap;html=1;fillColor=#f5f5f5;fontColor=#333333;strokeColor=#666666;fontFamily=Styrene B Trial;" vertex="1" parent="1">
          <mxGeometry y="510" width="550" height="110" as="geometry" />
        </mxCell>
        <mxCell id="PNOM8t6g6F2ZsMxSrsSq-94" value="" style="shape=cylinder3;whiteSpace=wrap;html=1;boundedLbl=1;backgroundOutline=1;size=4.965517241379331;fontFamily=Styrene B Trial;" vertex="1" parent="1">
          <mxGeometry x="410" y="330" width="110" height="90" as="geometry" />
        </mxCell>
        <mxCell id="PNOM8t6g6F2ZsMxSrsSq-95" value="" style="shape=cylinder3;whiteSpace=wrap;html=1;boundedLbl=1;backgroundOutline=1;size=4.2758620689655515;fontFamily=Styrene B Trial;" vertex="1" parent="1">
          <mxGeometry x="410" y="520" width="110" height="90" as="geometry" />
        </mxCell>
        <mxCell id="PNOM8t6g6F2ZsMxSrsSq-96" value="UserManagementService" style="rounded=1;whiteSpace=wrap;html=1;fontFamily=Styrene B Trial;" vertex="1" parent="1">
          <mxGeometry x="30" y="350" width="160" height="50" as="geometry" />
        </mxCell>
        <mxCell id="PNOM8t6g6F2ZsMxSrsSq-97" style="edgeStyle=orthogonalEdgeStyle;rounded=0;orthogonalLoop=1;jettySize=auto;html=1;startArrow=classic;startFill=1;fontFamily=Styrene B Trial;fillColor=#f5f5f5;strokeColor=#999999;dashed=1;" edge="1" source="PNOM8t6g6F2ZsMxSrsSq-98" target="PNOM8t6g6F2ZsMxSrsSq-95" parent="1">
          <mxGeometry relative="1" as="geometry" />
        </mxCell>
        <mxCell id="PNOM8t6g6F2ZsMxSrsSq-98" value="MessagingService" style="rounded=1;whiteSpace=wrap;html=1;fontFamily=Styrene B Trial;" vertex="1" parent="1">
          <mxGeometry x="30" y="540" width="160" height="50" as="geometry" />
        </mxCell>
        <mxCell id="PNOM8t6g6F2ZsMxSrsSq-99" style="edgeStyle=orthogonalEdgeStyle;rounded=0;orthogonalLoop=1;jettySize=auto;html=1;entryX=0;entryY=0.5;entryDx=0;entryDy=0;entryPerimeter=0;startArrow=classic;startFill=1;fontFamily=Styrene B Trial;fillColor=#f5f5f5;strokeColor=#999999;dashed=1;" edge="1" source="PNOM8t6g6F2ZsMxSrsSq-96" target="PNOM8t6g6F2ZsMxSrsSq-94" parent="1">
          <mxGeometry relative="1" as="geometry" />
        </mxCell>
        <mxCell id="PNOM8t6g6F2ZsMxSrsSq-115" value="" style="rounded=0;whiteSpace=wrap;html=1;" vertex="1" parent="1">
          <mxGeometry x="420" y="345" width="90" height="65" as="geometry" />
        </mxCell>
        <mxCell id="PNOM8t6g6F2ZsMxSrsSq-116" value="" style="endArrow=none;html=1;rounded=0;exitX=0.25;exitY=1;exitDx=0;exitDy=0;" edge="1" source="PNOM8t6g6F2ZsMxSrsSq-115" parent="1">
          <mxGeometry width="50" height="50" relative="1" as="geometry">
            <mxPoint x="370" y="510" as="sourcePoint" />
            <mxPoint x="442" y="361" as="targetPoint" />
          </mxGeometry>
        </mxCell>
        <mxCell id="PNOM8t6g6F2ZsMxSrsSq-117" value="" style="endArrow=none;html=1;rounded=0;entryX=0;entryY=0.25;entryDx=0;entryDy=0;exitX=1;exitY=0.25;exitDx=0;exitDy=0;" edge="1" source="PNOM8t6g6F2ZsMxSrsSq-115" target="PNOM8t6g6F2ZsMxSrsSq-115" parent="1">
          <mxGeometry width="50" height="50" relative="1" as="geometry">
            <mxPoint x="453" y="420" as="sourcePoint" />
            <mxPoint x="453" y="355" as="targetPoint" />
          </mxGeometry>
        </mxCell>
        <mxCell id="PNOM8t6g6F2ZsMxSrsSq-118" value="" style="endArrow=none;html=1;rounded=0;entryX=0;entryY=0.25;entryDx=0;entryDy=0;exitX=1;exitY=0.25;exitDx=0;exitDy=0;" edge="1" parent="1">
          <mxGeometry width="50" height="50" relative="1" as="geometry">
            <mxPoint x="510" y="374.97" as="sourcePoint" />
            <mxPoint x="420" y="374.97" as="targetPoint" />
          </mxGeometry>
        </mxCell>
        <mxCell id="PNOM8t6g6F2ZsMxSrsSq-119" value="Users" style="text;html=1;align=center;verticalAlign=middle;resizable=0;points=[];autosize=1;strokeColor=none;fillColor=none;fontSize=7;fontFamily=Styrene B Trial;" vertex="1" parent="1">
          <mxGeometry x="444" y="343" width="40" height="20" as="geometry" />
        </mxCell>
        <mxCell id="PNOM8t6g6F2ZsMxSrsSq-120" value="User ID" style="text;html=1;align=left;verticalAlign=middle;resizable=0;points=[];autosize=1;strokeColor=none;fillColor=none;fontSize=7;fontFamily=Styrene B Trial;" vertex="1" parent="1">
          <mxGeometry x="444" y="358" width="50" height="20" as="geometry" />
        </mxCell>
        <mxCell id="PNOM8t6g6F2ZsMxSrsSq-121" value="User Name" style="text;html=1;align=left;verticalAlign=middle;resizable=0;points=[];autosize=1;strokeColor=none;fillColor=none;fontSize=7;fontFamily=Styrene B Trial;" vertex="1" parent="1">
          <mxGeometry x="444" y="371" width="60" height="20" as="geometry" />
        </mxCell>
        <mxCell id="PNOM8t6g6F2ZsMxSrsSq-122" value="User Email" style="text;html=1;align=left;verticalAlign=middle;resizable=0;points=[];autosize=1;strokeColor=none;fillColor=none;fontSize=7;fontFamily=Styrene B Trial;" vertex="1" parent="1">
          <mxGeometry x="444" y="381" width="60" height="20" as="geometry" />
        </mxCell>
        <mxCell id="PNOM8t6g6F2ZsMxSrsSq-123" value="User Password" style="text;html=1;align=left;verticalAlign=middle;resizable=0;points=[];autosize=1;strokeColor=none;fillColor=none;fontSize=7;fontFamily=Styrene B Trial;" vertex="1" parent="1">
          <mxGeometry x="444" y="390" width="80" height="20" as="geometry" />
        </mxCell>
        <mxCell id="PNOM8t6g6F2ZsMxSrsSq-124" value="PK" style="text;html=1;align=left;verticalAlign=middle;resizable=0;points=[];autosize=1;strokeColor=none;fillColor=none;fontSize=7;fontFamily=Styrene B Trial;" vertex="1" parent="1">
          <mxGeometry x="423" y="358" width="30" height="20" as="geometry" />
        </mxCell>
        <mxCell id="PNOM8t6g6F2ZsMxSrsSq-125" value="" style="rounded=0;whiteSpace=wrap;html=1;" vertex="1" parent="1">
          <mxGeometry x="422" y="532" width="90" height="73" as="geometry" />
        </mxCell>
        <mxCell id="PNOM8t6g6F2ZsMxSrsSq-126" value="" style="endArrow=none;html=1;rounded=0;exitX=0.25;exitY=1;exitDx=0;exitDy=0;" edge="1" source="PNOM8t6g6F2ZsMxSrsSq-125" parent="1">
          <mxGeometry width="50" height="50" relative="1" as="geometry">
            <mxPoint x="372" y="697" as="sourcePoint" />
            <mxPoint x="444" y="545" as="targetPoint" />
          </mxGeometry>
        </mxCell>
        <mxCell id="PNOM8t6g6F2ZsMxSrsSq-127" value="" style="endArrow=none;html=1;rounded=0;" edge="1" parent="1">
          <mxGeometry width="50" height="50" relative="1" as="geometry">
            <mxPoint x="512" y="545" as="sourcePoint" />
            <mxPoint x="422" y="545" as="targetPoint" />
          </mxGeometry>
        </mxCell>
        <mxCell id="PNOM8t6g6F2ZsMxSrsSq-128" value="" style="endArrow=none;html=1;rounded=0;entryX=0;entryY=0.25;entryDx=0;entryDy=0;exitX=1;exitY=0.25;exitDx=0;exitDy=0;" edge="1" parent="1">
          <mxGeometry width="50" height="50" relative="1" as="geometry">
            <mxPoint x="512" y="561.97" as="sourcePoint" />
            <mxPoint x="422" y="561.97" as="targetPoint" />
          </mxGeometry>
        </mxCell>
        <mxCell id="PNOM8t6g6F2ZsMxSrsSq-129" value="Messages" style="text;html=1;align=center;verticalAlign=middle;resizable=0;points=[];autosize=1;strokeColor=none;fillColor=none;fontSize=7;fontFamily=Styrene B Trial;" vertex="1" parent="1">
          <mxGeometry x="436" y="530" width="60" height="20" as="geometry" />
        </mxCell>
        <mxCell id="PNOM8t6g6F2ZsMxSrsSq-130" value="Message ID" style="text;html=1;align=left;verticalAlign=middle;resizable=0;points=[];autosize=1;strokeColor=none;fillColor=none;fontSize=7;fontFamily=Styrene B Trial;" vertex="1" parent="1">
          <mxGeometry x="446" y="545" width="60" height="20" as="geometry" />
        </mxCell>
        <mxCell id="PNOM8t6g6F2ZsMxSrsSq-131" value="Message Text" style="text;html=1;align=left;verticalAlign=middle;resizable=0;points=[];autosize=1;strokeColor=none;fillColor=none;fontSize=7;fontFamily=Styrene B Trial;" vertex="1" parent="1">
          <mxGeometry x="446" y="558" width="70" height="20" as="geometry" />
        </mxCell>
        <mxCell id="PNOM8t6g6F2ZsMxSrsSq-132" value="Message Date" style="text;html=1;align=left;verticalAlign=middle;resizable=0;points=[];autosize=1;strokeColor=none;fillColor=none;fontSize=7;fontFamily=Styrene B Trial;" vertex="1" parent="1">
          <mxGeometry x="446" y="568" width="70" height="20" as="geometry" />
        </mxCell>
        <mxCell id="PNOM8t6g6F2ZsMxSrsSq-133" value="User ID" style="text;html=1;align=left;verticalAlign=middle;resizable=0;points=[];autosize=1;strokeColor=none;fillColor=none;fontSize=7;fontFamily=Styrene B Trial;fontColor=#67AB9F;" vertex="1" parent="1">
          <mxGeometry x="446" y="578" width="50" height="20" as="geometry" />
        </mxCell>
        <mxCell id="PNOM8t6g6F2ZsMxSrsSq-134" value="PK" style="text;html=1;align=left;verticalAlign=middle;resizable=0;points=[];autosize=1;strokeColor=none;fillColor=none;fontSize=7;fontFamily=Styrene B Trial;" vertex="1" parent="1">
          <mxGeometry x="425" y="545" width="30" height="20" as="geometry" />
        </mxCell>
        <mxCell id="PNOM8t6g6F2ZsMxSrsSq-135" value="KEY" style="text;html=1;align=left;verticalAlign=middle;resizable=0;points=[];autosize=1;strokeColor=none;fillColor=none;fontSize=7;fontFamily=Styrene B Trial;" vertex="1" parent="1">
          <mxGeometry x="425" y="578" width="40" height="20" as="geometry" />
        </mxCell>
        <mxCell id="PNOM8t6g6F2ZsMxSrsSq-148" value="User Role, Name" style="text;html=1;align=left;verticalAlign=middle;resizable=0;points=[];autosize=1;strokeColor=none;fillColor=none;fontSize=7;fontFamily=Styrene B Trial;fontColor=#FF9999;" vertex="1" parent="1">
          <mxGeometry x="446" y="588" width="80" height="20" as="geometry" />
        </mxCell>
        <mxCell id="PNOM8t6g6F2ZsMxSrsSq-149" value="" style="endArrow=none;html=1;rounded=0;fillColor=#f8cecc;strokeColor=#FF9999;" edge="1" parent="1">
          <mxGeometry width="50" height="50" relative="1" as="geometry">
            <mxPoint x="446" y="598" as="sourcePoint" />
            <mxPoint x="509" y="599" as="targetPoint" />
          </mxGeometry>
        </mxCell>
        <mxCell id="PNOM8t6g6F2ZsMxSrsSq-151" value="" style="shape=doubleArrow;direction=south;whiteSpace=wrap;html=1;arrowWidth=0.522981366459628;arrowSize=0.2392857142857146;" vertex="1" parent="1">
          <mxGeometry x="252.5" y="430" width="45" height="80" as="geometry" />
        </mxCell>
        <mxCell id="PNOM8t6g6F2ZsMxSrsSq-152" value="Data&amp;nbsp;&lt;div&gt;Exchange&lt;/div&gt;" style="text;html=1;align=center;verticalAlign=middle;resizable=0;points=[];autosize=1;strokeColor=none;fillColor=none;fontColor=default;fontFamily=Styrene B Trial;rotation=-90;" vertex="1" parent="1">
          <mxGeometry x="190" y="450" width="80" height="40" as="geometry" />
        </mxCell>
        <mxCell id="PNOM8t6g6F2ZsMxSrsSq-155" value="Users" style="shape=table;startSize=30;container=1;collapsible=1;childLayout=tableLayout;fixedRows=1;rowLines=0;fontStyle=1;align=center;resizeLast=1;html=1;fontFamily=Styrene B Trial;" vertex="1" parent="1">
          <mxGeometry y="670" width="180" height="180" as="geometry" />
        </mxCell>
        <mxCell id="PNOM8t6g6F2ZsMxSrsSq-156" value="" style="shape=tableRow;horizontal=0;startSize=0;swimlaneHead=0;swimlaneBody=0;fillColor=none;collapsible=0;dropTarget=0;points=[[0,0.5],[1,0.5]];portConstraint=eastwest;top=0;left=0;right=0;bottom=1;fontFamily=Styrene B Trial;" vertex="1" parent="PNOM8t6g6F2ZsMxSrsSq-155">
          <mxGeometry y="30" width="180" height="30" as="geometry" />
        </mxCell>
        <mxCell id="PNOM8t6g6F2ZsMxSrsSq-157" value="PK" style="shape=partialRectangle;connectable=0;fillColor=none;top=0;left=0;bottom=0;right=0;fontStyle=1;overflow=hidden;whiteSpace=wrap;html=1;fontFamily=Styrene B Trial;" vertex="1" parent="PNOM8t6g6F2ZsMxSrsSq-156">
          <mxGeometry width="30" height="30" as="geometry">
            <mxRectangle width="30" height="30" as="alternateBounds" />
          </mxGeometry>
        </mxCell>
        <mxCell id="PNOM8t6g6F2ZsMxSrsSq-158" value="UserID" style="shape=partialRectangle;connectable=0;fillColor=none;top=0;left=0;bottom=0;right=0;align=left;spacingLeft=6;fontStyle=5;overflow=hidden;whiteSpace=wrap;html=1;fontFamily=Styrene B Trial;" vertex="1" parent="PNOM8t6g6F2ZsMxSrsSq-156">
          <mxGeometry x="30" width="150" height="30" as="geometry">
            <mxRectangle width="150" height="30" as="alternateBounds" />
          </mxGeometry>
        </mxCell>
        <mxCell id="PNOM8t6g6F2ZsMxSrsSq-162" value="" style="shape=tableRow;horizontal=0;startSize=0;swimlaneHead=0;swimlaneBody=0;fillColor=none;collapsible=0;dropTarget=0;points=[[0,0.5],[1,0.5]];portConstraint=eastwest;top=0;left=0;right=0;bottom=0;fontFamily=Styrene B Trial;" vertex="1" parent="PNOM8t6g6F2ZsMxSrsSq-155">
          <mxGeometry y="60" width="180" height="30" as="geometry" />
        </mxCell>
        <mxCell id="PNOM8t6g6F2ZsMxSrsSq-163" value="" style="shape=partialRectangle;connectable=0;fillColor=none;top=0;left=0;bottom=0;right=0;editable=1;overflow=hidden;whiteSpace=wrap;html=1;fontFamily=Styrene B Trial;" vertex="1" parent="PNOM8t6g6F2ZsMxSrsSq-162">
          <mxGeometry width="30" height="30" as="geometry">
            <mxRectangle width="30" height="30" as="alternateBounds" />
          </mxGeometry>
        </mxCell>
        <mxCell id="PNOM8t6g6F2ZsMxSrsSq-164" value="Name" style="shape=partialRectangle;connectable=0;fillColor=none;top=0;left=0;bottom=0;right=0;align=left;spacingLeft=6;overflow=hidden;whiteSpace=wrap;html=1;fontFamily=Styrene B Trial;" vertex="1" parent="PNOM8t6g6F2ZsMxSrsSq-162">
          <mxGeometry x="30" width="150" height="30" as="geometry">
            <mxRectangle width="150" height="30" as="alternateBounds" />
          </mxGeometry>
        </mxCell>
        <mxCell id="PNOM8t6g6F2ZsMxSrsSq-165" value="" style="shape=tableRow;horizontal=0;startSize=0;swimlaneHead=0;swimlaneBody=0;fillColor=none;collapsible=0;dropTarget=0;points=[[0,0.5],[1,0.5]];portConstraint=eastwest;top=0;left=0;right=0;bottom=0;fontFamily=Styrene B Trial;" vertex="1" parent="PNOM8t6g6F2ZsMxSrsSq-155">
          <mxGeometry y="90" width="180" height="30" as="geometry" />
        </mxCell>
        <mxCell id="PNOM8t6g6F2ZsMxSrsSq-166" value="" style="shape=partialRectangle;connectable=0;fillColor=none;top=0;left=0;bottom=0;right=0;editable=1;overflow=hidden;whiteSpace=wrap;html=1;fontFamily=Styrene B Trial;" vertex="1" parent="PNOM8t6g6F2ZsMxSrsSq-165">
          <mxGeometry width="30" height="30" as="geometry">
            <mxRectangle width="30" height="30" as="alternateBounds" />
          </mxGeometry>
        </mxCell>
        <mxCell id="PNOM8t6g6F2ZsMxSrsSq-167" value="Email" style="shape=partialRectangle;connectable=0;fillColor=none;top=0;left=0;bottom=0;right=0;align=left;spacingLeft=6;overflow=hidden;whiteSpace=wrap;html=1;fontFamily=Styrene B Trial;" vertex="1" parent="PNOM8t6g6F2ZsMxSrsSq-165">
          <mxGeometry x="30" width="150" height="30" as="geometry">
            <mxRectangle width="150" height="30" as="alternateBounds" />
          </mxGeometry>
        </mxCell>
        <mxCell id="PNOM8t6g6F2ZsMxSrsSq-168" value="" style="shape=tableRow;horizontal=0;startSize=0;swimlaneHead=0;swimlaneBody=0;fillColor=none;collapsible=0;dropTarget=0;points=[[0,0.5],[1,0.5]];portConstraint=eastwest;top=0;left=0;right=0;bottom=0;fontFamily=Styrene B Trial;" vertex="1" parent="PNOM8t6g6F2ZsMxSrsSq-155">
          <mxGeometry y="120" width="180" height="30" as="geometry" />
        </mxCell>
        <mxCell id="PNOM8t6g6F2ZsMxSrsSq-169" value="" style="shape=partialRectangle;connectable=0;fillColor=none;top=0;left=0;bottom=0;right=0;editable=1;overflow=hidden;whiteSpace=wrap;html=1;fontFamily=Styrene B Trial;" vertex="1" parent="PNOM8t6g6F2ZsMxSrsSq-168">
          <mxGeometry width="30" height="30" as="geometry">
            <mxRectangle width="30" height="30" as="alternateBounds" />
          </mxGeometry>
        </mxCell>
        <mxCell id="PNOM8t6g6F2ZsMxSrsSq-170" value="Password" style="shape=partialRectangle;connectable=0;fillColor=none;top=0;left=0;bottom=0;right=0;align=left;spacingLeft=6;overflow=hidden;whiteSpace=wrap;html=1;fontFamily=Styrene B Trial;" vertex="1" parent="PNOM8t6g6F2ZsMxSrsSq-168">
          <mxGeometry x="30" width="150" height="30" as="geometry">
            <mxRectangle width="150" height="30" as="alternateBounds" />
          </mxGeometry>
        </mxCell>
        <mxCell id="PNOM8t6g6F2ZsMxSrsSq-174" value="" style="shape=tableRow;horizontal=0;startSize=0;swimlaneHead=0;swimlaneBody=0;fillColor=none;collapsible=0;dropTarget=0;points=[[0,0.5],[1,0.5]];portConstraint=eastwest;top=0;left=0;right=0;bottom=1;fontFamily=Styrene B Trial;" vertex="1" parent="PNOM8t6g6F2ZsMxSrsSq-155">
          <mxGeometry y="150" width="180" height="30" as="geometry" />
        </mxCell>
        <mxCell id="PNOM8t6g6F2ZsMxSrsSq-175" value="FK" style="shape=partialRectangle;connectable=0;fillColor=none;top=0;left=0;bottom=0;right=0;fontStyle=1;overflow=hidden;whiteSpace=wrap;html=1;fontFamily=Styrene B Trial;" vertex="1" parent="PNOM8t6g6F2ZsMxSrsSq-174">
          <mxGeometry width="30" height="30" as="geometry">
            <mxRectangle width="30" height="30" as="alternateBounds" />
          </mxGeometry>
        </mxCell>
        <mxCell id="PNOM8t6g6F2ZsMxSrsSq-176" value="RoleID" style="shape=partialRectangle;connectable=0;fillColor=none;top=0;left=0;bottom=0;right=0;align=left;spacingLeft=6;fontStyle=5;overflow=hidden;whiteSpace=wrap;html=1;fontFamily=Styrene B Trial;" vertex="1" parent="PNOM8t6g6F2ZsMxSrsSq-174">
          <mxGeometry x="30" width="150" height="30" as="geometry">
            <mxRectangle width="150" height="30" as="alternateBounds" />
          </mxGeometry>
        </mxCell>
        <mxCell id="PNOM8t6g6F2ZsMxSrsSq-177" value="Users_Roles" style="shape=table;startSize=30;container=1;collapsible=1;childLayout=tableLayout;fixedRows=1;rowLines=0;fontStyle=1;align=center;resizeLast=1;html=1;fontFamily=Styrene B Trial;" vertex="1" parent="1">
          <mxGeometry x="336" y="630" width="180" height="120" as="geometry" />
        </mxCell>
        <mxCell id="PNOM8t6g6F2ZsMxSrsSq-178" value="" style="shape=tableRow;horizontal=0;startSize=0;swimlaneHead=0;swimlaneBody=0;fillColor=none;collapsible=0;dropTarget=0;points=[[0,0.5],[1,0.5]];portConstraint=eastwest;top=0;left=0;right=0;bottom=1;fontFamily=Styrene B Trial;" vertex="1" parent="PNOM8t6g6F2ZsMxSrsSq-177">
          <mxGeometry y="30" width="180" height="30" as="geometry" />
        </mxCell>
        <mxCell id="PNOM8t6g6F2ZsMxSrsSq-179" value="PK" style="shape=partialRectangle;connectable=0;fillColor=none;top=0;left=0;bottom=0;right=0;fontStyle=1;overflow=hidden;whiteSpace=wrap;html=1;fontFamily=Styrene B Trial;" vertex="1" parent="PNOM8t6g6F2ZsMxSrsSq-178">
          <mxGeometry width="30" height="30" as="geometry">
            <mxRectangle width="30" height="30" as="alternateBounds" />
          </mxGeometry>
        </mxCell>
        <mxCell id="PNOM8t6g6F2ZsMxSrsSq-180" value="CorellationID" style="shape=partialRectangle;connectable=0;fillColor=none;top=0;left=0;bottom=0;right=0;align=left;spacingLeft=6;fontStyle=5;overflow=hidden;whiteSpace=wrap;html=1;fontFamily=Styrene B Trial;" vertex="1" parent="PNOM8t6g6F2ZsMxSrsSq-178">
          <mxGeometry x="30" width="150" height="30" as="geometry">
            <mxRectangle width="150" height="30" as="alternateBounds" />
          </mxGeometry>
        </mxCell>
        <mxCell id="PNOM8t6g6F2ZsMxSrsSq-181" value="" style="shape=tableRow;horizontal=0;startSize=0;swimlaneHead=0;swimlaneBody=0;fillColor=none;collapsible=0;dropTarget=0;points=[[0,0.5],[1,0.5]];portConstraint=eastwest;top=0;left=0;right=0;bottom=0;fontFamily=Styrene B Trial;" vertex="1" parent="PNOM8t6g6F2ZsMxSrsSq-177">
          <mxGeometry y="60" width="180" height="30" as="geometry" />
        </mxCell>
        <mxCell id="PNOM8t6g6F2ZsMxSrsSq-182" value="" style="shape=partialRectangle;connectable=0;fillColor=none;top=0;left=0;bottom=0;right=0;editable=1;overflow=hidden;whiteSpace=wrap;html=1;fontFamily=Styrene B Trial;" vertex="1" parent="PNOM8t6g6F2ZsMxSrsSq-181">
          <mxGeometry width="30" height="30" as="geometry">
            <mxRectangle width="30" height="30" as="alternateBounds" />
          </mxGeometry>
        </mxCell>
        <mxCell id="PNOM8t6g6F2ZsMxSrsSq-183" value="UserID" style="shape=partialRectangle;connectable=0;fillColor=none;top=0;left=0;bottom=0;right=0;align=left;spacingLeft=6;overflow=hidden;whiteSpace=wrap;html=1;fontFamily=Styrene B Trial;" vertex="1" parent="PNOM8t6g6F2ZsMxSrsSq-181">
          <mxGeometry x="30" width="150" height="30" as="geometry">
            <mxRectangle width="150" height="30" as="alternateBounds" />
          </mxGeometry>
        </mxCell>
        <mxCell id="PNOM8t6g6F2ZsMxSrsSq-184" value="" style="shape=tableRow;horizontal=0;startSize=0;swimlaneHead=0;swimlaneBody=0;fillColor=none;collapsible=0;dropTarget=0;points=[[0,0.5],[1,0.5]];portConstraint=eastwest;top=0;left=0;right=0;bottom=0;fontFamily=Styrene B Trial;" vertex="1" parent="PNOM8t6g6F2ZsMxSrsSq-177">
          <mxGeometry y="90" width="180" height="30" as="geometry" />
        </mxCell>
        <mxCell id="PNOM8t6g6F2ZsMxSrsSq-185" value="" style="shape=partialRectangle;connectable=0;fillColor=none;top=0;left=0;bottom=0;right=0;editable=1;overflow=hidden;whiteSpace=wrap;html=1;fontFamily=Styrene B Trial;" vertex="1" parent="PNOM8t6g6F2ZsMxSrsSq-184">
          <mxGeometry width="30" height="30" as="geometry">
            <mxRectangle width="30" height="30" as="alternateBounds" />
          </mxGeometry>
        </mxCell>
        <mxCell id="PNOM8t6g6F2ZsMxSrsSq-186" value="RoleID" style="shape=partialRectangle;connectable=0;fillColor=none;top=0;left=0;bottom=0;right=0;align=left;spacingLeft=6;overflow=hidden;whiteSpace=wrap;html=1;fontFamily=Styrene B Trial;" vertex="1" parent="PNOM8t6g6F2ZsMxSrsSq-184">
          <mxGeometry x="30" width="150" height="30" as="geometry">
            <mxRectangle width="150" height="30" as="alternateBounds" />
          </mxGeometry>
        </mxCell>
        <mxCell id="PNOM8t6g6F2ZsMxSrsSq-195" value="Roles" style="shape=table;startSize=30;container=1;collapsible=1;childLayout=tableLayout;fixedRows=1;rowLines=0;fontStyle=1;align=center;resizeLast=1;html=1;fontFamily=Styrene B Trial;" vertex="1" parent="1">
          <mxGeometry x="336" y="770" width="180" height="120" as="geometry" />
        </mxCell>
        <mxCell id="PNOM8t6g6F2ZsMxSrsSq-196" value="" style="shape=tableRow;horizontal=0;startSize=0;swimlaneHead=0;swimlaneBody=0;fillColor=none;collapsible=0;dropTarget=0;points=[[0,0.5],[1,0.5]];portConstraint=eastwest;top=0;left=0;right=0;bottom=1;fontFamily=Styrene B Trial;" vertex="1" parent="PNOM8t6g6F2ZsMxSrsSq-195">
          <mxGeometry y="30" width="180" height="30" as="geometry" />
        </mxCell>
        <mxCell id="PNOM8t6g6F2ZsMxSrsSq-197" value="PK" style="shape=partialRectangle;connectable=0;fillColor=none;top=0;left=0;bottom=0;right=0;fontStyle=1;overflow=hidden;whiteSpace=wrap;html=1;fontFamily=Styrene B Trial;" vertex="1" parent="PNOM8t6g6F2ZsMxSrsSq-196">
          <mxGeometry width="30" height="30" as="geometry">
            <mxRectangle width="30" height="30" as="alternateBounds" />
          </mxGeometry>
        </mxCell>
        <mxCell id="PNOM8t6g6F2ZsMxSrsSq-198" value="RoleID" style="shape=partialRectangle;connectable=0;fillColor=none;top=0;left=0;bottom=0;right=0;align=left;spacingLeft=6;fontStyle=5;overflow=hidden;whiteSpace=wrap;html=1;fontFamily=Styrene B Trial;" vertex="1" parent="PNOM8t6g6F2ZsMxSrsSq-196">
          <mxGeometry x="30" width="150" height="30" as="geometry">
            <mxRectangle width="150" height="30" as="alternateBounds" />
          </mxGeometry>
        </mxCell>
        <mxCell id="PNOM8t6g6F2ZsMxSrsSq-199" value="" style="shape=tableRow;horizontal=0;startSize=0;swimlaneHead=0;swimlaneBody=0;fillColor=none;collapsible=0;dropTarget=0;points=[[0,0.5],[1,0.5]];portConstraint=eastwest;top=0;left=0;right=0;bottom=0;fontFamily=Styrene B Trial;" vertex="1" parent="PNOM8t6g6F2ZsMxSrsSq-195">
          <mxGeometry y="60" width="180" height="30" as="geometry" />
        </mxCell>
        <mxCell id="PNOM8t6g6F2ZsMxSrsSq-200" value="" style="shape=partialRectangle;connectable=0;fillColor=none;top=0;left=0;bottom=0;right=0;editable=1;overflow=hidden;whiteSpace=wrap;html=1;fontFamily=Styrene B Trial;" vertex="1" parent="PNOM8t6g6F2ZsMxSrsSq-199">
          <mxGeometry width="30" height="30" as="geometry">
            <mxRectangle width="30" height="30" as="alternateBounds" />
          </mxGeometry>
        </mxCell>
        <mxCell id="PNOM8t6g6F2ZsMxSrsSq-201" value="Role Name" style="shape=partialRectangle;connectable=0;fillColor=none;top=0;left=0;bottom=0;right=0;align=left;spacingLeft=6;overflow=hidden;whiteSpace=wrap;html=1;fontFamily=Styrene B Trial;" vertex="1" parent="PNOM8t6g6F2ZsMxSrsSq-199">
          <mxGeometry x="30" width="150" height="30" as="geometry">
            <mxRectangle width="150" height="30" as="alternateBounds" />
          </mxGeometry>
        </mxCell>
        <mxCell id="PNOM8t6g6F2ZsMxSrsSq-202" value="" style="shape=tableRow;horizontal=0;startSize=0;swimlaneHead=0;swimlaneBody=0;fillColor=none;collapsible=0;dropTarget=0;points=[[0,0.5],[1,0.5]];portConstraint=eastwest;top=0;left=0;right=0;bottom=0;fontFamily=Styrene B Trial;" vertex="1" parent="PNOM8t6g6F2ZsMxSrsSq-195">
          <mxGeometry y="90" width="180" height="30" as="geometry" />
        </mxCell>
        <mxCell id="PNOM8t6g6F2ZsMxSrsSq-203" value="" style="shape=partialRectangle;connectable=0;fillColor=none;top=0;left=0;bottom=0;right=0;editable=1;overflow=hidden;whiteSpace=wrap;html=1;fontFamily=Styrene B Trial;" vertex="1" parent="PNOM8t6g6F2ZsMxSrsSq-202">
          <mxGeometry width="30" height="30" as="geometry">
            <mxRectangle width="30" height="30" as="alternateBounds" />
          </mxGeometry>
        </mxCell>
        <mxCell id="PNOM8t6g6F2ZsMxSrsSq-204" value="Description" style="shape=partialRectangle;connectable=0;fillColor=none;top=0;left=0;bottom=0;right=0;align=left;spacingLeft=6;overflow=hidden;whiteSpace=wrap;html=1;fontFamily=Styrene B Trial;" vertex="1" parent="PNOM8t6g6F2ZsMxSrsSq-202">
          <mxGeometry x="30" width="150" height="30" as="geometry">
            <mxRectangle width="150" height="30" as="alternateBounds" />
          </mxGeometry>
        </mxCell>
        <mxCell id="PNOM8t6g6F2ZsMxSrsSq-205" value="" style="edgeStyle=entityRelationEdgeStyle;fontSize=12;html=1;endArrow=ERoneToMany;startArrow=ERmandOne;rounded=0;fontFamily=Styrene B Trial;" edge="1" parent="1" source="PNOM8t6g6F2ZsMxSrsSq-178" target="PNOM8t6g6F2ZsMxSrsSq-196">
          <mxGeometry width="100" height="100" relative="1" as="geometry">
            <mxPoint x="275" y="875" as="sourcePoint" />
            <mxPoint x="190" y="935" as="targetPoint" />
          </mxGeometry>
        </mxCell>
        <mxCell id="PNOM8t6g6F2ZsMxSrsSq-206" value="" style="edgeStyle=entityRelationEdgeStyle;fontSize=12;html=1;endArrow=ERoneToMany;startArrow=ERmandOne;rounded=0;fontFamily=Styrene B Trial;" edge="1" parent="1" source="PNOM8t6g6F2ZsMxSrsSq-178" target="PNOM8t6g6F2ZsMxSrsSq-174">
          <mxGeometry width="100" height="100" relative="1" as="geometry">
            <mxPoint x="690" y="750" as="sourcePoint" />
            <mxPoint x="200" y="880" as="targetPoint" />
            <Array as="points">
              <mxPoint x="720" y="730" />
              <mxPoint x="690" y="730" />
              <mxPoint x="720" y="730" />
              <mxPoint x="699" y="722" />
              <mxPoint x="712" y="731" />
              <mxPoint x="700" y="680" />
              <mxPoint x="690" y="680" />
              <mxPoint x="720" y="700" />
              <mxPoint x="700" y="720" />
              <mxPoint x="710" y="710" />
            </Array>
          </mxGeometry>
        </mxCell>
        <mxCell id="PNOM8t6g6F2ZsMxSrsSq-208" value="UserManagementService" style="rounded=1;whiteSpace=wrap;html=1;arcSize=6;fillColor=#f5f5f5;fontColor=#333333;strokeColor=#666666;fontFamily=Styrene B Trial;verticalAlign=top;" vertex="1" parent="1">
          <mxGeometry x="560" width="530" height="140" as="geometry" />
        </mxCell>
        <mxCell id="PNOM8t6g6F2ZsMxSrsSq-209" value="ApplicationGatewayModule" style="rounded=1;whiteSpace=wrap;html=1;fontFamily=Styrene B Trial;arcSize=8;fillColor=#d5e8d4;strokeColor=#82b366;" vertex="1" parent="1">
          <mxGeometry x="570" y="28" width="170" height="102" as="geometry" />
        </mxCell>
        <mxCell id="PNOM8t6g6F2ZsMxSrsSq-210" value="UserRegistrationModule" style="rounded=1;whiteSpace=wrap;html=1;fontFamily=Styrene B Trial;fillColor=#dae8fc;strokeColor=#6c8ebf;" vertex="1" parent="1">
          <mxGeometry x="750" y="29" width="150" height="42" as="geometry" />
        </mxCell>
        <mxCell id="PNOM8t6g6F2ZsMxSrsSq-211" value="AuthModule" style="rounded=1;whiteSpace=wrap;html=1;fontFamily=Styrene B Trial;fillColor=#dae8fc;strokeColor=#6c8ebf;" vertex="1" parent="1">
          <mxGeometry x="750" y="89" width="150" height="42" as="geometry" />
        </mxCell>
        <mxCell id="PNOM8t6g6F2ZsMxSrsSq-212" value="DataAccessLayerModule" style="rounded=1;whiteSpace=wrap;html=1;fontFamily=Styrene B Trial;arcSize=9;fillColor=#e1d5e7;strokeColor=#9673a6;" vertex="1" parent="1">
          <mxGeometry x="910" y="29" width="170" height="102" as="geometry" />
        </mxCell>
        <mxCell id="PNOM8t6g6F2ZsMxSrsSq-213" value="" style="ellipse;whiteSpace=wrap;html=1;aspect=fixed;fontFamily=Styrene B Trial;fillColor=#d5e8d4;strokeColor=#82b366;" vertex="1" parent="1">
          <mxGeometry x="555" y="73" width="10" height="10" as="geometry" />
        </mxCell>
        <mxCell id="PNOM8t6g6F2ZsMxSrsSq-214" value="" style="ellipse;whiteSpace=wrap;html=1;aspect=fixed;fontFamily=Styrene B Trial;fillColor=#e1d5e7;strokeColor=#9673a6;" vertex="1" parent="1">
          <mxGeometry x="1085" y="68" width="10" height="10" as="geometry" />
        </mxCell>
        <mxCell id="PNOM8t6g6F2ZsMxSrsSq-215" value="Messages" style="shape=table;startSize=30;container=1;collapsible=1;childLayout=tableLayout;fixedRows=1;rowLines=0;fontStyle=1;align=center;resizeLast=1;html=1;fontFamily=Styrene B Trial;" vertex="1" parent="1">
          <mxGeometry x="554" y="190" width="180" height="180" as="geometry" />
        </mxCell>
        <mxCell id="PNOM8t6g6F2ZsMxSrsSq-216" value="" style="shape=tableRow;horizontal=0;startSize=0;swimlaneHead=0;swimlaneBody=0;fillColor=none;collapsible=0;dropTarget=0;points=[[0,0.5],[1,0.5]];portConstraint=eastwest;top=0;left=0;right=0;bottom=1;fontFamily=Styrene B Trial;" vertex="1" parent="PNOM8t6g6F2ZsMxSrsSq-215">
          <mxGeometry y="30" width="180" height="30" as="geometry" />
        </mxCell>
        <mxCell id="PNOM8t6g6F2ZsMxSrsSq-217" value="PK" style="shape=partialRectangle;connectable=0;fillColor=none;top=0;left=0;bottom=0;right=0;fontStyle=1;overflow=hidden;whiteSpace=wrap;html=1;fontFamily=Styrene B Trial;" vertex="1" parent="PNOM8t6g6F2ZsMxSrsSq-216">
          <mxGeometry width="30" height="30" as="geometry">
            <mxRectangle width="30" height="30" as="alternateBounds" />
          </mxGeometry>
        </mxCell>
        <mxCell id="PNOM8t6g6F2ZsMxSrsSq-218" value="UserID" style="shape=partialRectangle;connectable=0;fillColor=none;top=0;left=0;bottom=0;right=0;align=left;spacingLeft=6;fontStyle=5;overflow=hidden;whiteSpace=wrap;html=1;fontFamily=Styrene B Trial;" vertex="1" parent="PNOM8t6g6F2ZsMxSrsSq-216">
          <mxGeometry x="30" width="150" height="30" as="geometry">
            <mxRectangle width="150" height="30" as="alternateBounds" />
          </mxGeometry>
        </mxCell>
        <mxCell id="PNOM8t6g6F2ZsMxSrsSq-219" value="" style="shape=tableRow;horizontal=0;startSize=0;swimlaneHead=0;swimlaneBody=0;fillColor=none;collapsible=0;dropTarget=0;points=[[0,0.5],[1,0.5]];portConstraint=eastwest;top=0;left=0;right=0;bottom=0;fontFamily=Styrene B Trial;" vertex="1" parent="PNOM8t6g6F2ZsMxSrsSq-215">
          <mxGeometry y="60" width="180" height="30" as="geometry" />
        </mxCell>
        <mxCell id="PNOM8t6g6F2ZsMxSrsSq-220" value="" style="shape=partialRectangle;connectable=0;fillColor=none;top=0;left=0;bottom=0;right=0;editable=1;overflow=hidden;whiteSpace=wrap;html=1;fontFamily=Styrene B Trial;" vertex="1" parent="PNOM8t6g6F2ZsMxSrsSq-219">
          <mxGeometry width="30" height="30" as="geometry">
            <mxRectangle width="30" height="30" as="alternateBounds" />
          </mxGeometry>
        </mxCell>
        <mxCell id="PNOM8t6g6F2ZsMxSrsSq-221" value="Name" style="shape=partialRectangle;connectable=0;fillColor=none;top=0;left=0;bottom=0;right=0;align=left;spacingLeft=6;overflow=hidden;whiteSpace=wrap;html=1;fontFamily=Styrene B Trial;" vertex="1" parent="PNOM8t6g6F2ZsMxSrsSq-219">
          <mxGeometry x="30" width="150" height="30" as="geometry">
            <mxRectangle width="150" height="30" as="alternateBounds" />
          </mxGeometry>
        </mxCell>
        <mxCell id="PNOM8t6g6F2ZsMxSrsSq-222" value="" style="shape=tableRow;horizontal=0;startSize=0;swimlaneHead=0;swimlaneBody=0;fillColor=none;collapsible=0;dropTarget=0;points=[[0,0.5],[1,0.5]];portConstraint=eastwest;top=0;left=0;right=0;bottom=0;fontFamily=Styrene B Trial;" vertex="1" parent="PNOM8t6g6F2ZsMxSrsSq-215">
          <mxGeometry y="90" width="180" height="30" as="geometry" />
        </mxCell>
        <mxCell id="PNOM8t6g6F2ZsMxSrsSq-223" value="" style="shape=partialRectangle;connectable=0;fillColor=none;top=0;left=0;bottom=0;right=0;editable=1;overflow=hidden;whiteSpace=wrap;html=1;fontFamily=Styrene B Trial;" vertex="1" parent="PNOM8t6g6F2ZsMxSrsSq-222">
          <mxGeometry width="30" height="30" as="geometry">
            <mxRectangle width="30" height="30" as="alternateBounds" />
          </mxGeometry>
        </mxCell>
        <mxCell id="PNOM8t6g6F2ZsMxSrsSq-224" value="Email" style="shape=partialRectangle;connectable=0;fillColor=none;top=0;left=0;bottom=0;right=0;align=left;spacingLeft=6;overflow=hidden;whiteSpace=wrap;html=1;fontFamily=Styrene B Trial;" vertex="1" parent="PNOM8t6g6F2ZsMxSrsSq-222">
          <mxGeometry x="30" width="150" height="30" as="geometry">
            <mxRectangle width="150" height="30" as="alternateBounds" />
          </mxGeometry>
        </mxCell>
        <mxCell id="PNOM8t6g6F2ZsMxSrsSq-225" value="" style="shape=tableRow;horizontal=0;startSize=0;swimlaneHead=0;swimlaneBody=0;fillColor=none;collapsible=0;dropTarget=0;points=[[0,0.5],[1,0.5]];portConstraint=eastwest;top=0;left=0;right=0;bottom=0;fontFamily=Styrene B Trial;" vertex="1" parent="PNOM8t6g6F2ZsMxSrsSq-215">
          <mxGeometry y="120" width="180" height="30" as="geometry" />
        </mxCell>
        <mxCell id="PNOM8t6g6F2ZsMxSrsSq-226" value="" style="shape=partialRectangle;connectable=0;fillColor=none;top=0;left=0;bottom=0;right=0;editable=1;overflow=hidden;whiteSpace=wrap;html=1;fontFamily=Styrene B Trial;" vertex="1" parent="PNOM8t6g6F2ZsMxSrsSq-225">
          <mxGeometry width="30" height="30" as="geometry">
            <mxRectangle width="30" height="30" as="alternateBounds" />
          </mxGeometry>
        </mxCell>
        <mxCell id="PNOM8t6g6F2ZsMxSrsSq-227" value="Password" style="shape=partialRectangle;connectable=0;fillColor=none;top=0;left=0;bottom=0;right=0;align=left;spacingLeft=6;overflow=hidden;whiteSpace=wrap;html=1;fontFamily=Styrene B Trial;" vertex="1" parent="PNOM8t6g6F2ZsMxSrsSq-225">
          <mxGeometry x="30" width="150" height="30" as="geometry">
            <mxRectangle width="150" height="30" as="alternateBounds" />
          </mxGeometry>
        </mxCell>
        <mxCell id="PNOM8t6g6F2ZsMxSrsSq-228" value="" style="shape=tableRow;horizontal=0;startSize=0;swimlaneHead=0;swimlaneBody=0;fillColor=none;collapsible=0;dropTarget=0;points=[[0,0.5],[1,0.5]];portConstraint=eastwest;top=0;left=0;right=0;bottom=1;fontFamily=Styrene B Trial;" vertex="1" parent="PNOM8t6g6F2ZsMxSrsSq-215">
          <mxGeometry y="150" width="180" height="30" as="geometry" />
        </mxCell>
        <mxCell id="PNOM8t6g6F2ZsMxSrsSq-229" value="FK" style="shape=partialRectangle;connectable=0;fillColor=none;top=0;left=0;bottom=0;right=0;fontStyle=1;overflow=hidden;whiteSpace=wrap;html=1;fontFamily=Styrene B Trial;" vertex="1" parent="PNOM8t6g6F2ZsMxSrsSq-228">
          <mxGeometry width="30" height="30" as="geometry">
            <mxRectangle width="30" height="30" as="alternateBounds" />
          </mxGeometry>
        </mxCell>
        <mxCell id="PNOM8t6g6F2ZsMxSrsSq-230" value="AuthorID" style="shape=partialRectangle;connectable=0;fillColor=none;top=0;left=0;bottom=0;right=0;align=left;spacingLeft=6;fontStyle=5;overflow=hidden;whiteSpace=wrap;html=1;fontFamily=Styrene B Trial;" vertex="1" parent="PNOM8t6g6F2ZsMxSrsSq-228">
          <mxGeometry x="30" width="150" height="30" as="geometry">
            <mxRectangle width="150" height="30" as="alternateBounds" />
          </mxGeometry>
        </mxCell>
        <mxCell id="PNOM8t6g6F2ZsMxSrsSq-231" value="Messages_Subscriptions" style="shape=table;startSize=30;container=1;collapsible=1;childLayout=tableLayout;fixedRows=1;rowLines=0;fontStyle=1;align=center;resizeLast=1;html=1;fontFamily=Styrene B Trial;" vertex="1" parent="1">
          <mxGeometry x="880" y="150" width="180" height="120" as="geometry" />
        </mxCell>
        <mxCell id="PNOM8t6g6F2ZsMxSrsSq-232" value="" style="shape=tableRow;horizontal=0;startSize=0;swimlaneHead=0;swimlaneBody=0;fillColor=none;collapsible=0;dropTarget=0;points=[[0,0.5],[1,0.5]];portConstraint=eastwest;top=0;left=0;right=0;bottom=1;fontFamily=Styrene B Trial;" vertex="1" parent="PNOM8t6g6F2ZsMxSrsSq-231">
          <mxGeometry y="30" width="180" height="30" as="geometry" />
        </mxCell>
        <mxCell id="PNOM8t6g6F2ZsMxSrsSq-233" value="PK" style="shape=partialRectangle;connectable=0;fillColor=none;top=0;left=0;bottom=0;right=0;fontStyle=1;overflow=hidden;whiteSpace=wrap;html=1;fontFamily=Styrene B Trial;" vertex="1" parent="PNOM8t6g6F2ZsMxSrsSq-232">
          <mxGeometry width="30" height="30" as="geometry">
            <mxRectangle width="30" height="30" as="alternateBounds" />
          </mxGeometry>
        </mxCell>
        <mxCell id="PNOM8t6g6F2ZsMxSrsSq-234" value="CorellationID" style="shape=partialRectangle;connectable=0;fillColor=none;top=0;left=0;bottom=0;right=0;align=left;spacingLeft=6;fontStyle=5;overflow=hidden;whiteSpace=wrap;html=1;fontFamily=Styrene B Trial;" vertex="1" parent="PNOM8t6g6F2ZsMxSrsSq-232">
          <mxGeometry x="30" width="150" height="30" as="geometry">
            <mxRectangle width="150" height="30" as="alternateBounds" />
          </mxGeometry>
        </mxCell>
        <mxCell id="PNOM8t6g6F2ZsMxSrsSq-235" value="" style="shape=tableRow;horizontal=0;startSize=0;swimlaneHead=0;swimlaneBody=0;fillColor=none;collapsible=0;dropTarget=0;points=[[0,0.5],[1,0.5]];portConstraint=eastwest;top=0;left=0;right=0;bottom=0;fontFamily=Styrene B Trial;" vertex="1" parent="PNOM8t6g6F2ZsMxSrsSq-231">
          <mxGeometry y="60" width="180" height="30" as="geometry" />
        </mxCell>
        <mxCell id="PNOM8t6g6F2ZsMxSrsSq-236" value="" style="shape=partialRectangle;connectable=0;fillColor=none;top=0;left=0;bottom=0;right=0;editable=1;overflow=hidden;whiteSpace=wrap;html=1;fontFamily=Styrene B Trial;" vertex="1" parent="PNOM8t6g6F2ZsMxSrsSq-235">
          <mxGeometry width="30" height="30" as="geometry">
            <mxRectangle width="30" height="30" as="alternateBounds" />
          </mxGeometry>
        </mxCell>
        <mxCell id="PNOM8t6g6F2ZsMxSrsSq-237" value="AuthorID" style="shape=partialRectangle;connectable=0;fillColor=none;top=0;left=0;bottom=0;right=0;align=left;spacingLeft=6;overflow=hidden;whiteSpace=wrap;html=1;fontFamily=Styrene B Trial;" vertex="1" parent="PNOM8t6g6F2ZsMxSrsSq-235">
          <mxGeometry x="30" width="150" height="30" as="geometry">
            <mxRectangle width="150" height="30" as="alternateBounds" />
          </mxGeometry>
        </mxCell>
        <mxCell id="PNOM8t6g6F2ZsMxSrsSq-238" value="" style="shape=tableRow;horizontal=0;startSize=0;swimlaneHead=0;swimlaneBody=0;fillColor=none;collapsible=0;dropTarget=0;points=[[0,0.5],[1,0.5]];portConstraint=eastwest;top=0;left=0;right=0;bottom=0;fontFamily=Styrene B Trial;" vertex="1" parent="PNOM8t6g6F2ZsMxSrsSq-231">
          <mxGeometry y="90" width="180" height="30" as="geometry" />
        </mxCell>
        <mxCell id="PNOM8t6g6F2ZsMxSrsSq-239" value="" style="shape=partialRectangle;connectable=0;fillColor=none;top=0;left=0;bottom=0;right=0;editable=1;overflow=hidden;whiteSpace=wrap;html=1;fontFamily=Styrene B Trial;" vertex="1" parent="PNOM8t6g6F2ZsMxSrsSq-238">
          <mxGeometry width="30" height="30" as="geometry">
            <mxRectangle width="30" height="30" as="alternateBounds" />
          </mxGeometry>
        </mxCell>
        <mxCell id="PNOM8t6g6F2ZsMxSrsSq-240" value="ConsumerID" style="shape=partialRectangle;connectable=0;fillColor=none;top=0;left=0;bottom=0;right=0;align=left;spacingLeft=6;overflow=hidden;whiteSpace=wrap;html=1;fontFamily=Styrene B Trial;" vertex="1" parent="PNOM8t6g6F2ZsMxSrsSq-238">
          <mxGeometry x="30" width="150" height="30" as="geometry">
            <mxRectangle width="150" height="30" as="alternateBounds" />
          </mxGeometry>
        </mxCell>
        <mxCell id="PNOM8t6g6F2ZsMxSrsSq-241" value="Subscribers" style="shape=table;startSize=30;container=1;collapsible=1;childLayout=tableLayout;fixedRows=1;rowLines=0;fontStyle=1;align=center;resizeLast=1;html=1;fontFamily=Styrene B Trial;" vertex="1" parent="1">
          <mxGeometry x="880" y="290" width="180" height="120" as="geometry" />
        </mxCell>
        <mxCell id="PNOM8t6g6F2ZsMxSrsSq-242" value="" style="shape=tableRow;horizontal=0;startSize=0;swimlaneHead=0;swimlaneBody=0;fillColor=none;collapsible=0;dropTarget=0;points=[[0,0.5],[1,0.5]];portConstraint=eastwest;top=0;left=0;right=0;bottom=1;fontFamily=Styrene B Trial;" vertex="1" parent="PNOM8t6g6F2ZsMxSrsSq-241">
          <mxGeometry y="30" width="180" height="30" as="geometry" />
        </mxCell>
        <mxCell id="PNOM8t6g6F2ZsMxSrsSq-243" value="PK" style="shape=partialRectangle;connectable=0;fillColor=none;top=0;left=0;bottom=0;right=0;fontStyle=1;overflow=hidden;whiteSpace=wrap;html=1;fontFamily=Styrene B Trial;" vertex="1" parent="PNOM8t6g6F2ZsMxSrsSq-242">
          <mxGeometry width="30" height="30" as="geometry">
            <mxRectangle width="30" height="30" as="alternateBounds" />
          </mxGeometry>
        </mxCell>
        <mxCell id="PNOM8t6g6F2ZsMxSrsSq-244" value="SubscriberID" style="shape=partialRectangle;connectable=0;fillColor=none;top=0;left=0;bottom=0;right=0;align=left;spacingLeft=6;fontStyle=5;overflow=hidden;whiteSpace=wrap;html=1;fontFamily=Styrene B Trial;" vertex="1" parent="PNOM8t6g6F2ZsMxSrsSq-242">
          <mxGeometry x="30" width="150" height="30" as="geometry">
            <mxRectangle width="150" height="30" as="alternateBounds" />
          </mxGeometry>
        </mxCell>
        <mxCell id="PNOM8t6g6F2ZsMxSrsSq-245" value="" style="shape=tableRow;horizontal=0;startSize=0;swimlaneHead=0;swimlaneBody=0;fillColor=none;collapsible=0;dropTarget=0;points=[[0,0.5],[1,0.5]];portConstraint=eastwest;top=0;left=0;right=0;bottom=0;fontFamily=Styrene B Trial;" vertex="1" parent="PNOM8t6g6F2ZsMxSrsSq-241">
          <mxGeometry y="60" width="180" height="30" as="geometry" />
        </mxCell>
        <mxCell id="PNOM8t6g6F2ZsMxSrsSq-246" value="" style="shape=partialRectangle;connectable=0;fillColor=none;top=0;left=0;bottom=0;right=0;editable=1;overflow=hidden;whiteSpace=wrap;html=1;fontFamily=Styrene B Trial;" vertex="1" parent="PNOM8t6g6F2ZsMxSrsSq-245">
          <mxGeometry width="30" height="30" as="geometry">
            <mxRectangle width="30" height="30" as="alternateBounds" />
          </mxGeometry>
        </mxCell>
        <mxCell id="PNOM8t6g6F2ZsMxSrsSq-247" value="ConsumerID" style="shape=partialRectangle;connectable=0;fillColor=none;top=0;left=0;bottom=0;right=0;align=left;spacingLeft=6;overflow=hidden;whiteSpace=wrap;html=1;fontFamily=Styrene B Trial;" vertex="1" parent="PNOM8t6g6F2ZsMxSrsSq-245">
          <mxGeometry x="30" width="150" height="30" as="geometry">
            <mxRectangle width="150" height="30" as="alternateBounds" />
          </mxGeometry>
        </mxCell>
        <mxCell id="PNOM8t6g6F2ZsMxSrsSq-248" value="" style="shape=tableRow;horizontal=0;startSize=0;swimlaneHead=0;swimlaneBody=0;fillColor=none;collapsible=0;dropTarget=0;points=[[0,0.5],[1,0.5]];portConstraint=eastwest;top=0;left=0;right=0;bottom=0;fontFamily=Styrene B Trial;" vertex="1" parent="PNOM8t6g6F2ZsMxSrsSq-241">
          <mxGeometry y="90" width="180" height="30" as="geometry" />
        </mxCell>
        <mxCell id="PNOM8t6g6F2ZsMxSrsSq-249" value="" style="shape=partialRectangle;connectable=0;fillColor=none;top=0;left=0;bottom=0;right=0;editable=1;overflow=hidden;whiteSpace=wrap;html=1;fontFamily=Styrene B Trial;" vertex="1" parent="PNOM8t6g6F2ZsMxSrsSq-248">
          <mxGeometry width="30" height="30" as="geometry">
            <mxRectangle width="30" height="30" as="alternateBounds" />
          </mxGeometry>
        </mxCell>
        <mxCell id="PNOM8t6g6F2ZsMxSrsSq-250" value="Comment" style="shape=partialRectangle;connectable=0;fillColor=none;top=0;left=0;bottom=0;right=0;align=left;spacingLeft=6;overflow=hidden;whiteSpace=wrap;html=1;fontFamily=Styrene B Trial;" vertex="1" parent="PNOM8t6g6F2ZsMxSrsSq-248">
          <mxGeometry x="30" width="150" height="30" as="geometry">
            <mxRectangle width="150" height="30" as="alternateBounds" />
          </mxGeometry>
        </mxCell>
        <mxCell id="PNOM8t6g6F2ZsMxSrsSq-251" value="" style="edgeStyle=entityRelationEdgeStyle;fontSize=12;html=1;endArrow=ERoneToMany;startArrow=ERmandOne;rounded=0;fontFamily=Styrene B Trial;" edge="1" source="PNOM8t6g6F2ZsMxSrsSq-232" target="PNOM8t6g6F2ZsMxSrsSq-242" parent="1">
          <mxGeometry width="100" height="100" relative="1" as="geometry">
            <mxPoint x="819" y="395" as="sourcePoint" />
            <mxPoint x="734" y="455" as="targetPoint" />
          </mxGeometry>
        </mxCell>
        <mxCell id="PNOM8t6g6F2ZsMxSrsSq-252" value="" style="edgeStyle=entityRelationEdgeStyle;fontSize=12;html=1;endArrow=ERoneToMany;startArrow=ERmandOne;rounded=0;fontFamily=Styrene B Trial;" edge="1" source="PNOM8t6g6F2ZsMxSrsSq-232" target="PNOM8t6g6F2ZsMxSrsSq-228" parent="1">
          <mxGeometry width="100" height="100" relative="1" as="geometry">
            <mxPoint x="1244" y="270" as="sourcePoint" />
            <mxPoint x="754" y="400" as="targetPoint" />
            <Array as="points">
              <mxPoint x="1274" y="250" />
              <mxPoint x="1244" y="250" />
              <mxPoint x="1274" y="250" />
              <mxPoint x="1253" y="242" />
              <mxPoint x="1266" y="251" />
              <mxPoint x="1254" y="200" />
              <mxPoint x="1244" y="200" />
              <mxPoint x="1274" y="220" />
              <mxPoint x="1254" y="240" />
              <mxPoint x="1264" y="230" />
            </Array>
          </mxGeometry>
        </mxCell>
        <mxCell id="PNOM8t6g6F2ZsMxSrsSq-254" value="MessagingService" style="rounded=1;whiteSpace=wrap;html=1;arcSize=6;fillColor=#f5f5f5;fontColor=#333333;strokeColor=#666666;fontFamily=Styrene B Trial;verticalAlign=top;" vertex="1" parent="1">
          <mxGeometry x="565" y="430" width="530" height="140" as="geometry" />
        </mxCell>
        <mxCell id="PNOM8t6g6F2ZsMxSrsSq-255" value="ApplicationGatewayModule" style="rounded=1;whiteSpace=wrap;html=1;fontFamily=Styrene B Trial;arcSize=8;fillColor=#d5e8d4;strokeColor=#82b366;" vertex="1" parent="1">
          <mxGeometry x="575" y="458" width="170" height="102" as="geometry" />
        </mxCell>
        <mxCell id="PNOM8t6g6F2ZsMxSrsSq-256" value="MessagingModule" style="rounded=1;whiteSpace=wrap;html=1;fontFamily=Styrene B Trial;fillColor=#dae8fc;strokeColor=#6c8ebf;" vertex="1" parent="1">
          <mxGeometry x="755" y="459" width="150" height="42" as="geometry" />
        </mxCell>
        <mxCell id="PNOM8t6g6F2ZsMxSrsSq-257" value="SubscriptionModule" style="rounded=1;whiteSpace=wrap;html=1;fontFamily=Styrene B Trial;fillColor=#dae8fc;strokeColor=#6c8ebf;" vertex="1" parent="1">
          <mxGeometry x="755" y="519" width="150" height="42" as="geometry" />
        </mxCell>
        <mxCell id="PNOM8t6g6F2ZsMxSrsSq-258" value="DataAccessLayerModule" style="rounded=1;whiteSpace=wrap;html=1;fontFamily=Styrene B Trial;arcSize=9;fillColor=#e1d5e7;strokeColor=#9673a6;" vertex="1" parent="1">
          <mxGeometry x="915" y="459" width="170" height="102" as="geometry" />
        </mxCell>
        <mxCell id="PNOM8t6g6F2ZsMxSrsSq-259" value="" style="ellipse;whiteSpace=wrap;html=1;aspect=fixed;fontFamily=Styrene B Trial;fillColor=#d5e8d4;strokeColor=#82b366;" vertex="1" parent="1">
          <mxGeometry x="560" y="503" width="10" height="10" as="geometry" />
        </mxCell>
        <mxCell id="PNOM8t6g6F2ZsMxSrsSq-260" value="" style="ellipse;whiteSpace=wrap;html=1;aspect=fixed;fontFamily=Styrene B Trial;fillColor=#e1d5e7;strokeColor=#9673a6;" vertex="1" parent="1">
          <mxGeometry x="1090" y="498" width="10" height="10" as="geometry" />
        </mxCell>
      </root>
    </mxGraphModel>
  </diagram>
</mxfile>
